<?xml version="1.0" standalone="no"?>
<!DOCTYPE svg PUBLIC "-//W3C//DTD SVG 20010904//EN"
 "http://www.w3.org/TR/2001/REC-SVG-20010904/DTD/svg10.dtd">
<svg version="1.0" xmlns="http://www.w3.org/2000/svg"
 width="180.000000pt" height="180.000000pt" viewBox="0 0 180.000000 180.000000"
 preserveAspectRatio="xMidYMid meet">
<metadata>
Created by potrace 1.14, written by Peter Selinger 2001-2017
</metadata>
<g transform="translate(0.000000,180.000000) scale(0.100000,-0.100000)"
fill="#000000" stroke="none">
<path d="M730 1765 c-122 -25 -215 -63 -323 -133 -111 -71 -189 -156 -281
-305 -17 -28 -65 -147 -71 -177 -2 -8 -9 -35 -15 -60 -18 -64 -22 -266 -6
-334 8 -31 14 -60 15 -64 4 -24 35 -109 42 -117 5 -5 9 -15 9 -23 0 -8 21 -50
47 -94 82 -138 246 -284 374 -334 24 -9 49 -21 55 -25 6 -5 19 -10 30 -12 10
-2 37 -9 59 -15 81 -22 102 -25 220 -25 122 0 196 8 228 24 9 6 17 7 17 3 0
-3 7 -1 15 6 8 7 15 10 15 7 0 -17 221 93 228 114 2 5 9 9 17 9 22 0 164 147
211 221 57 88 91 167 120 284 29 120 27 302 -6 415 -32 111 -84 223 -130 277
-5 7 -10 16 -10 20 0 9 -107 122 -152 160 -58 50 -278 166 -278 147 0 -3 -8 0
-18 5 -11 6 -30 12 -43 15 -13 3 -35 8 -49 11 -51 13 -256 13 -320 0z"/>
</g>
</svg>
